<?xml version="1.0" encoding="UTF-8"?>
<svg width="48px" height="48px" version="1.1" viewBox="0 0 700 700" fill="#ff244d" xmlns="http://www.w3.org/2000/svg" xmlns:xlink="http://www.w3.org/1999/xlink">
  <g>
    <path  d="m545.16 179.05c-33.242-73.902-107.51-125.5-193.65-125.5-85.973 0-160.11 51.402-193.44 125.06-43.125 5.6758-76.68 38-79.809 78.031-0.18359 1.875-0.30859 3.8594-0.3125 6.0586v0.042969 0.011719 0.023437c0 2.6445 0.13281 5.2539 0.39062 7.8242 0.011718 0.10547 0.035156 0.19531 0.042968 0.29688 0.26172 2.4805 0.62891 4.9375 1.1133 7.3516 0.039062 0.16797 0.09375 0.33594 0.125 0.50391 0.49219 2.3398 1.0703 4.6523 1.7656 6.9219 0.042969 0.14062 0.10547 0.27344 0.14453 0.41016 0.71875 2.2969 1.5234 4.5547 2.4531 6.7656 0.023437 0.0625 0.054687 0.11719 0.085937 0.17188 11.508 27.453 38.199 48.086 70.773 53.434 27.266 60.621 82.164 106.18 148.55 120.62 3.7812 22.348 23.18 39.391 46.598 39.391 26.137 0 47.32-21.184 47.32-47.312 0-26.137-21.184-47.32-47.32-47.32-21.023 0-38.824 13.727-44.984 32.699-61.141-14.387-110.95-58.43-133.43-116.05v-6.832l-0.003906-76.738v-39.559c25.312-75.129 96.375-129.41 179.93-129.41 80.434 0 149.3 50.305 176.91 121.09v150.81c51.711 0 93.625-38.09 93.625-85.094 0.003906-41.812-33.168-76.516-76.883-83.695z" />
    <path d="m352.67 132.46c-68.828 0-124.63 55.805-124.63 124.63 0 68.836 55.805 124.64 124.63 124.64s124.64-55.805 124.64-124.64c-0.003906-68.828-55.812-124.63-124.64-124.63zm0 226.87c-56.371 0-102.23-45.863-102.23-102.24s45.859-102.23 102.23-102.23c56.371 0 102.24 45.859 102.24 102.23s-45.871 102.24-102.24 102.24z" />
    <path d="m341.49 245.88h-49v22.398h71.359l0.039063-79.121h-22.398z" />
  </g>
</svg>