<?xml version="1.0" encoding="UTF-8"?>
<svg width="48px" height="48px" fill="#ff244d" version="1.1" viewBox="0 0 700 700" xmlns="http://www.w3.org/2000/svg" xmlns:xlink="http://www.w3.org/1999/xlink">
 <g>
  <path d="m618.38 383.86c-3.7344-7.9766-10.266-13.914-18.496-16.969-8.0625-2.8867-16.715-2.6289-24.52 0.84766l-116.24 36.398c0.25391-1.4414 0.50781-2.8867 0.59375-4.3281 0.59375-8.7383-2.5469-17.223-8.7383-23.844-6.6172-7.043-15.867-11.031-25.539-11.031h-77.211l-66.945-24.438c-16.801-6.1094-34.449-9.25-52.352-9.25l-31.652 0.007812v-19.602c0-10.266-8.3984-18.668-18.668-18.668h-81.453c-10.266 0-18.668 8.3984-18.668 18.668v199.65c0 10.266 8.3984 18.668 18.668 18.668h81.453c10.266 0 18.668-8.3984 18.668-18.668v-20.703h12.898c4.9219 0 9.6719 0.84766 14.168 2.4609l143.73 51.164c4.582 1.6133 9.418 2.375 14.168 2.375 7.2969 0 14.594-1.8672 21.043-5.6016l199.31-113.53c7.3828-3.4805 13.066-9.418 16.289-16.969 0.33984-0.67969 0.59375-1.2734 0.67969-1.6133 2.9727-8.1445 2.5469-17.309-1.1875-25.027zm-438.07-44.121v142.46 0.085938 29.102c0 0.93359-0.76172 1.6953-1.6953 1.6953h-81.457c-0.93359 0-1.6953-0.76172-1.6953-1.6953l-0.003906-199.73c0-0.93359 0.76172-1.6953 1.6953-1.6953h81.453c0.93359 0 1.6953 0.76172 1.6953 1.6953zm423.31 63.379c-0.085937 0.16797-0.16797 0.42578-0.25391 0.59375-1.5273 3.8164-4.3281 6.7031-8.5703 8.8242l-199.9 113.87c-6.4492 3.6484-14.086 4.3281-21.129 1.8672l-137.03-48.789-6.5352-2.375c-6.3633-2.2891-13.066-3.4805-20.023-3.4805l-12.895 0.003906v-125.41h31.648c15.953 0 31.562 2.8008 46.496 8.2305l68.305 24.945c0.93359 0.33984 1.9531 0.50781 2.8867 0.50781h78.656c4.9219 0 9.7578 2.1211 13.152 5.6836 2.9688 3.1406 4.4961 7.1289 4.2422 11.113-0.25391 3.8164-1.8672 7.4648-4.582 10.184-1.3594 1.2734-2.8008 2.375-4.4961 3.1406l-4.3281 1.3594c-0.84766 0.16797-1.6953 0.16797-2.5469 0.16797h-84.344c-4.668 0-8.4844 3.8164-8.4844 8.4844 0 4.668 3.8164 8.4844 8.4844 8.4844h84.508c4.4961 0 8.8242-0.93359 12.898-2.6289l141.19-44.207c0.33984-0.085938 0.67969-0.25391 1.1016-0.42578 3.8164-1.7812 8.1445-1.9531 12.133-0.50781 3.9883 1.4414 7.1289 4.3281 8.9922 8.2305 1.6172 3.7344 1.8711 8.0625 0.42969 12.133z"/>
  <path d="m137.88 444.86c-14 0-25.453 11.453-25.453 25.453s11.453 25.453 25.453 25.453 25.453-11.453 25.453-25.453c0-13.996-11.453-25.453-25.453-25.453zm0 33.941c-4.668 0-8.4844-3.8164-8.4844-8.4844 0-4.668 3.8164-8.4844 8.4844-8.4844 4.75 0 8.4844 3.7344 8.4844 8.4844 0 4.6641-3.8164 8.4844-8.4844 8.4844z"/>
  <path d="m402.44 30.289c68.898 4.75 123.96 58.207 132.79 125.07l-21.383-17.816c-3.6484-3.0547-8.9922-2.5469-11.965 1.1016-2.9688 3.5625-2.5469 8.9102 1.1016 11.965l36.738 30.715c1.5273 1.2734 3.4805 1.9531 5.4297 1.9531h0.76172c2.207-0.16797 4.3281-1.2734 5.7695-2.9688l30.629-36.656c2.9688-3.5625 2.5469-8.9102-1.1016-11.965-3.6484-2.9688-8.9102-2.5469-11.965 1.1016l-17.223 20.617c-9.7539-75.004-71.352-134.73-148.39-140.08-4.668-0.16797-8.7383 3.2227-9.0781 7.8906-0.25781 4.668 3.2227 8.7422 7.8906 9.0781z"/>
  <path d="m392.43 335.41c4.668 0 8.4844-3.8164 8.4844-8.4844s-3.8164-8.4844-8.4844-8.4844c-79.504 0-144.24-64.738-144.24-144.24 0-8.0625 0.67969-16.121 1.9531-23.926 0.76172-4.582-2.375-8.9922-6.957-9.7578-4.668-0.84766-8.9922 2.375-9.7578 6.957-1.5312 8.7383-2.2109 17.73-2.2109 26.727 0 88.836 72.293 161.21 161.21 161.21z"/>
  <path d="m309.87 54.133c1.6133 0 3.1406-0.42578 4.582-1.3594 6.7031-4.3281 13.832-8.1445 21.211-11.285 4.3281-1.8672 6.2773-6.7891 4.4961-11.113-1.8672-4.3281-6.8711-6.3633-11.113-4.4961-8.1445 3.4805-16.121 7.7227-23.672 12.559-3.9023 2.5469-5.0898 7.8047-2.5469 11.711 1.5273 2.6289 4.2422 3.9844 7.043 3.9844z"/>
  <path d="m356.36 34.195c0.67969 0 1.3594-0.085937 2.0352-0.25391 7.8047-1.8672 15.781-3.1406 23.758-3.6484 4.668-0.33984 8.2305-4.4141 7.8906-9.0781-0.33984-4.668-4.2422-8.2305-9.0781-7.8906-8.9102 0.59375-17.816 2.0352-26.473 4.0742-4.582 1.1016-7.3828 5.6836-6.2773 10.266 0.84766 3.8984 4.3281 6.5312 8.1445 6.5312z"/>
  <path d="m245.21 132.2c0.93359 0.33984 1.8672 0.42578 2.8008 0.42578 3.5625 0 6.7891-2.207 8.0625-5.6836 2.6289-7.5508 5.8555-14.934 9.7578-21.977 2.2891-4.0742 0.76172-9.25-3.3945-11.539s-9.25-0.76172-11.539 3.3945c-4.3281 7.8906-7.9766 16.121-10.859 24.52-1.5312 4.4961 0.76172 9.332 5.1719 10.859z"/>
  <path d="m272.36 88.242c2.5469 0 5.0078-1.1016 6.7031-3.2227 4.9219-6.2773 10.438-12.219 16.375-17.562 3.4805-3.1406 3.7344-8.4844 0.59375-11.965-3.1406-3.4805-8.4844-3.7344-11.965-0.59375-6.6172 6.0234-12.727 12.641-18.242 19.602-2.8867 3.6484-2.2891 8.9922 1.4414 11.879 1.3594 1.2695 3.2266 1.8633 5.0938 1.8633z"/>
  <path d="m392.43 267.53c51.504 0 93.332-41.832 93.332-93.332 0-51.504-41.832-93.332-93.332-93.332-51.504 0-93.332 41.832-93.332 93.332-0.003906 51.5 41.828 93.332 93.332 93.332zm0-169.7c42.086 0 76.363 34.277 76.363 76.363 0 42.086-34.277 76.363-76.363 76.363-42.086 0-76.363-34.277-76.363-76.363 0-42.086 34.191-76.363 76.363-76.363z"/>
  <path d="m392.43 207.37c-6.8711 0-12.387-5.6016-12.387-12.387 0-4.668-3.8164-8.4844-8.4844-8.4844-4.668 0-8.4844 3.8164-8.4844 8.4844 0 13.238 8.8242 24.352 20.871 28v2.1211c0 4.668 3.8164 8.4844 8.4844 8.4844s8.4844-3.8164 8.4844-8.4844v-2.1211c12.047-3.6484 20.871-14.762 20.871-28 0-16.207-13.152-29.359-29.359-29.359-6.8711 0-12.387-5.6016-12.387-12.387 0-6.8711 5.6016-12.387 12.387-12.387 6.7891 0 12.387 5.6016 12.387 12.387 0 4.668 3.8164 8.4844 8.4844 8.4844s8.4844-3.8164 8.4844-8.4844c0-13.238-8.8242-24.352-20.871-28v-1.9531c0-4.668-3.8164-8.4844-8.4844-8.4844s-8.4844 3.8164-8.4844 8.4844v1.9531c-12.047 3.6484-20.871 14.762-20.871 28 0 16.207 13.152 29.359 29.359 29.359 6.8711 0 12.387 5.6016 12.387 12.387s-5.6016 12.387-12.387 12.387z"/>
 </g>
</svg>
