<?xml version="1.0" encoding="UTF-8"?>
<svg width="48px" height="48px" version="1.1" viewBox="0 0 700 700" xmlns="http://www.w3.org/2000/svg" xmlns:xlink="http://www.w3.org/1999/xlink">
 <g>
  <path fill="#ff244d" d="m516.25 406.58c-7.582 0-14 6.418-14 14s6.418 14 14 14 14-6.418 14-14c0-8.1641-6.418-14-14-14zm-326.67-204.16 32.668 32.668v1.168c0.58203 10.5 6.418 24.5 30.918 29.75l25.668 25.668c-3.5 4.082-11.082 7-19.25 7-9.332 0-21.582-3.5-24.5-15.75-1.168-4.668-5.832-7-9.918-5.832-4.668 1.168-7 5.832-5.832 9.918 3.5 14.582 15.75 24.5 30.918 27.418v6.418c0 4.668 3.5 8.168 8.168 8.168s8.168-3.5 8.168-8.168l-0.007813-5.8438c9.332-1.168 18.082-5.25 23.918-11.082l24.5 24.5c-15.168 12.832-35 20.418-56.582 20.418-49.582 0-89.832-40.25-89.832-89.832 1.1641-21.004 8.7461-40.836 20.996-56.586zm138.25 114.33c13.418-15.75 21-35.582 21-57.75 0-49.582-40.25-89.832-89.832-89.832-22.168 0-42 8.168-57.75 21l26.832 26.832c4.668-6.418 12.25-11.668 21.582-13.418h1.168v-6.418c0-4.668 3.5-8.168 8.168-8.168s8.168 3.5 8.168 8.168v6.418c11.668 2.332 22.75 9.332 28 22.75 1.75 4.082 0 9.332-4.668 11.082-4.082 1.75-9.332 0-11.082-4.668-4.668-11.668-16.918-14.582-26.832-12.832-5.25 1.168-11.082 4.082-13.418 9.332l21 21c9.332 1.75 33.832 6.418 36.75 30.332 0 2.332 0.58203 4.668 0 7zm-68.832-163.92c-58.332 0-106.17 47.832-106.17 106.17 0 58.332 47.832 106.17 106.17 106.17 58.332 0 106.17-47.832 106.17-106.17 0-58.332-47.25-106.17-106.17-106.17zm-40.832 253.75c-7.582 0-14 6.418-14 14s6.418 14 14 14 14-6.418 14-14c0-8.1641-6.418-14-14-14zm340.66-137.66-27.418-64.168h-65.914v64.168zm12.25 16.914h-113.75c-4.668 0-8.168-3.5-8.168-8.168l0.003907-81.082c0-4.668 3.5-8.168 8.168-8.168l79.332 0.003907c3.5 0 6.418 1.75 7.582 5.25l34.418 80.5c1.168 2.332 0.58203 5.25-0.58203 7.582-1.7539 2.332-4.0859 4.082-7.0039 4.082zm11.086 61.836v28h16.918v-28zm16.914 57.164c0 4.082-3.5 7-7 7h-26.25c-4.082-23.332-24.5-41.418-49-41.418s-44.918 18.082-49 41.418h-33.25v-239.17h106.17c7.582 0 14 4.082 16.332 9.918l40.836 97.418c0.58203 1.75 1.168 3.5 1.168 5.25v45.5h-18.082c-8.75 0-15.168 7-15.168 15.75v30.332c0 8.75 7 15.75 15.168 15.75h18.082zm-49.582 15.75c0 18.082-15.168 33.25-33.25 33.25s-33.25-15.168-33.25-33.25 15.168-33.25 33.25-33.25 33.25 14.586 33.25 33.25zm-282.33-8.1641h149.92l-0.003907-293.42c0-7-5.832-12.25-12.25-12.25h-291.08c-7 0-12.25 5.832-12.25 12.25v281.17c0 7 5.832 12.25 12.25 12.25h55.418c4.082-23.332 24.5-41.418 49-41.418s44.914 17.5 49 41.418zm-15.75 8.1641c0 18.082-15.168 33.25-33.25 33.25s-33.25-15.168-33.25-33.25 15.168-33.25 33.25-33.25 33.25 14.586 33.25 33.25zm364-135.33v119.58c0 13.418-10.5 23.918-23.918 23.918h-26.25c-4.082 23.332-24.5 41.418-49 41.418s-44.918-18.082-49-41.418h-200.08c-4.082 23.332-24.5 41.418-49 41.418s-44.918-18.082-49-41.418h-55.418c-15.75 0-29.168-12.832-29.168-29.168v-280.58c0-15.75 12.832-29.168 29.168-29.168h291.08c15.75 0 29.168 12.832 29.168 29.168v37.332h106.17c14.582 0 26.25 7.582 32.082 20.418l41.418 96.832c1.1641 3.5 1.75 7.5859 1.75 11.668z" fill-rule="evenodd" />
 </g>
</svg>
