<?xml version="1.0" encoding="UTF-8"?>
<svg width="48px" height="48px" version="1.1" viewBox="0 0 700 700" xmlns="http://www.w3.org/2000/svg" xmlns:xlink="http://www.w3.org/1999/xlink" fill="#ff244d" >
  <g style="display: flex; justify-content: center; align-items: center">
  <path d="m596.82 28.34h-106.32c-3.3945 0-6.1953 2.8008-6.1953 6.1953 0 3.3945 2.8008 6.1953 6.1953 6.1953h106.32c6.5352 0 11.793 5.2617 11.793 11.711v47.09l-375.88-0.003906c-3.3945 0-6.1953 2.8008-6.1953 6.1953 0 3.3945 2.8008 6.1953 6.1953 6.1953h375.88v53.793h-517.23v-53.793h104.28c3.3945 0 6.1953-2.8008 6.1953-6.1953 0-3.3945-2.8008-6.1953-6.1953-6.1953h-104.28v-47.09c0-6.4492 5.2617-11.711 11.711-11.711h308.43c3.3945 0 6.1953-2.8008 6.1953-6.1953s-2.8008-6.1953-6.1953-6.1953l-308.43 0.003906c-13.32 0-24.098 10.859-24.098 24.098v310.71c0 13.238 10.859 24.012 24.098 24.012h237.49c3.2227 30.461 15.273 59.48 35.297 84.426 21.383 26.559 50.57 47.176 84.34 59.734h0.16797c0.67969 0.25391 1.3594 0.33984 2.0352 0.33984 0.67969 0 1.3594-0.16797 2.0352-0.33984h0.16797c66.691-24.691 112.76-80.52 119.72-144.07h12.727c13.32 0 24.184-10.777 24.184-24.012l0.003907-310.8c-0.25391-13.324-11.117-24.098-24.438-24.098zm0 346.44h-11.793c0-1.3594 0.085938-2.7148 0.085938-4.0742v-78.738c0-1.6953-0.67969-3.3086-1.9531-4.4961-1.1875-1.1875-2.8867-1.8672-4.582-1.6953-1.7812 0.085937-3.5625 0.16797-5.3438 0.16797-44.629 0-86.969-23.164-105.46-57.613-1.1016-2.0352-3.2227-3.3086-5.4297-3.3086-2.2891 0-4.4141 1.2734-5.4297 3.3086-3.9023 7.2969-8.6562 14.086-14.254 20.277-2.2891 2.5469-2.0352 6.4492 0.50781 8.7383 2.5469 2.2891 6.4492 2.0352 8.7383-0.50781 3.8164-4.2422 7.2969-8.8242 10.52-13.574 22.57 33.176 65.504 54.898 110.3 55.066v72.375c0 2.375-0.085938 4.75-0.16797 7.2109-3.0547 61.344-46.328 116.33-110.22 140.85-30.715-11.793-57.273-30.715-76.871-54.98-20.195-25.199-31.734-54.898-33.344-85.867-0.16797-2.375-0.25391-4.8359-0.25391-7.2969v-72.461c14 0.42578 27.832-1.2734 40.898-4.9219 3.3086-0.93359 5.2617-4.3281 4.3281-7.6367-0.93359-3.3086-4.3281-5.2617-7.6367-4.3281-13.66 3.8164-28.426 5.5156-43.102 4.0742-1.6953-0.16797-3.4805 0.42578-4.75 1.6133-1.2734 1.1875-2.0352 2.8867-2.0352 4.582v79.078c0 1.3594 0.085937 2.7148 0.085937 4.0742h-236.57c-6.4492 0-11.711-5.1758-11.711-11.625l0.003906-184.88h517.24v184.97c-0.003906 6.3633-5.2617 11.625-11.797 11.625z" />
  <path d="m433.66 40.727h35.383c3.3945 0 6.1953-2.8008 6.1953-6.1953s-2.8008-6.1953-6.1953-6.1953h-35.383c-3.3945 0-6.1953 2.8008-6.1953 6.1953s2.8008 6.1953 6.1953 6.1953z"/>
  <path d="m208.05 105.72c0 3.3945 2.8008 6.1953 6.1953 6.1953h0.50781c3.3945 0 5.9375-2.8008 5.9375-6.1953 0-3.3945-3.0547-6.1953-6.4492-6.1953-3.3906 0-6.1914 2.8008-6.1914 6.1953z"/>
  <path d="m413.72 284.75c0.93359 0 1.9531-0.25391 2.8008-0.67969 6.1094-3.1406 12.047-6.7891 17.562-10.945 2.7148-2.0352 3.3086-5.9375 1.2734-8.6562-2.0352-2.7148-5.9375-3.3086-8.6562-1.2734-5.0078 3.7344-10.352 7.043-15.867 9.8438-3.0547 1.5273-4.2422 5.2617-2.7148 8.3164 1.1016 2.125 3.3086 3.3945 5.6016 3.3945z"/>
  <path d="m371.38 322.43v48.195c0 1.8672 0.085938 3.8164 0.25391 6.3633 2.4609 50.398 36.23 96.219 88.156 119.64 0.84766 0.33984 1.6953 0.50781 2.5469 0.50781 0.84766 0 1.7812-0.16797 2.5469-0.59375 51.926-23.504 85.695-69.492 88.156-119.72 0.16797-2.0352 0.16797-4.1562 0.16797-6.2773v-48.789c0-3.0547-2.207-5.6836-5.2617-6.1094-30.629-4.668-59.395-18.156-81.031-37.926-2.375-2.207-6.4492-1.7812-8.8242 0.42578-22.145 20.703-50.23 33.855-81.285 38.012-3.1367 0.58984-5.4258 3.2227-5.4258 6.2773zm12.387 5.3438c29.781-5.0078 56.934-17.648 78.992-36.992 21.551 18.242 48.871 30.969 77.977 36.316v43.527c0 1.7812 0 3.4805-0.16797 5.4297-2.207 44.969-32.156 86.121-78.316 108.1-46.156-21.805-76.023-62.871-78.316-107.84-0.16797-2.2891-0.25391-4.0742-0.25391-5.6836v-42.852z"/>
  <path d="m439.01 419.57c1.1875 1.1875 2.8008 1.7812 4.4141 1.7812s3.1406-0.59375 4.4141-1.7812l56.848-56.848c2.4609-2.4609 2.4609-6.3633 0-8.7383-2.4609-2.375-6.3633-2.4609-8.7383 0l-52.52 52.52-14.594-14.594c-2.4609-2.4609-6.3633-2.4609-8.7383 0-2.4609 2.4609-2.4609 6.3633 0 8.7383z"/>
  <path d="m171.22 248.69c-25.793 0-46.75 21.043-46.75 46.922 0 25.793 20.957 46.836 46.75 46.836 25.793 0 46.836-21.043 46.836-46.836 0.003906-25.879-20.957-46.922-46.836-46.922zm0 81.285c-18.922 0-34.363-15.441-34.363-34.449 0-19.008 15.441-34.535 34.363-34.535 19.008 0 34.449 15.527 34.449 34.535 0 19.008-15.441 34.449-34.449 34.449z"/>
  <path d="m154.59 475.57h-11.539c-2.2891 0-4.1562 1.8672-4.1562 4.1562 0 2.2891 1.8672 4.1562 4.1562 4.1562h11.625c2.2891 0 4.1562-1.8672 4.1562-4.1562-0.085938-2.2891-1.9492-4.1562-4.2422-4.1562z"/>
  <path d="m122.35 475.57h-11.625c-2.2891 0-4.1562 1.8672-4.1562 4.1562 0 2.2891 1.8672 4.1562 4.1562 4.1562h11.625c2.2891 0 4.1562-1.8672 4.1562-4.1562 0-2.2891-1.8672-4.1562-4.1562-4.1562z"/>
  <path d="m132.7 485.93c-2.2891 0-4.1562 1.8672-4.1562 4.1562v11.625c0 2.2891 1.8672 4.1562 4.1562 4.1562s4.1562-1.8672 4.1562-4.1562v-11.625c0-2.2891-1.8672-4.1562-4.1562-4.1562z"/>
  <path d="m132.7 473.54c2.2891 0 4.1562-1.8672 4.1562-4.1562v-11.625c0-2.2891-1.8672-4.1562-4.1562-4.1562s-4.1562 1.8672-4.1562 4.1562v11.625c0 2.2891 1.8672 4.1562 4.1562 4.1562z"/>
  <path d="m577.39 483.21c-9.332 0-16.969 7.4648-16.969 16.715s7.6367 16.715 16.969 16.715 16.887-7.4648 16.887-16.715c-0.003906-9.2461-7.6406-16.715-16.887-16.715zm0 25.203c-4.9219 0-8.7383-3.7344-8.7383-8.4844s3.8164-8.4844 8.7383-8.4844c4.75 0 8.6562 3.8164 8.6562 8.4844-0.003906 4.6641-3.9062 8.4844-8.6562 8.4844z"/>
  <path d="m231.55 411.09c-8.9102 0-16.121 7.2109-16.121 16.035s7.2109 16.035 16.121 16.035c8.9922 0 16.207-7.2109 16.207-16.035 0-8.8203-7.2969-16.035-16.207-16.035zm0 23.758c-4.3281 0-7.8906-3.4805-7.8906-7.7227 0-4.3281 3.5625-7.8047 7.8906-7.8047 4.4961 0 7.9766 3.3945 7.9766 7.8047 0 4.2461-3.5625 7.7227-7.9766 7.7227z"/>
  <path d="m339.14 489.83h-10.012c-2.2891 0-4.1562 1.8672-4.1562 4.1562 0 2.2891 1.8672 4.1562 4.1562 4.1562h10.012c2.2891 0 4.1562-1.8672 4.1562-4.1562 0-2.293-1.8672-4.1562-4.1562-4.1562z"/>
  <path d="m311.22 489.83h-10.098c-2.2891 0-4.1562 1.8672-4.1562 4.1562 0 2.2891 1.8672 4.1562 4.1562 4.1562h10.098c2.2891 0 4.1562-1.8672 4.1562-4.1562-0.082031-2.293-1.9492-4.1562-4.1562-4.1562z"/>
  <path d="m320.13 498.82c-2.2891 0-4.1562 1.8672-4.1562 4.1562v10.012c0 2.2891 1.8672 4.1562 4.1562 4.1562 2.2891 0 4.1562-1.8672 4.1562-4.1562v-10.012c0-2.2891-1.8633-4.1562-4.1562-4.1562z"/>
  <path d="m320.13 489.15c2.2891 0 4.1562-1.8672 4.1562-4.1562v-10.098c0-2.2891-1.8672-4.1562-4.1562-4.1562-2.2891 0-4.1562 1.8672-4.1562 4.1562v10.098c0 2.2891 1.8672 4.1562 4.1562 4.1562z"/>
 </g>
</svg>
